:version 1.10
:name ASF
:units
  mass 1
  length 1
  angle deg
:documentation
  ASF file generated by Kaydara
:root
  axis xyz
  order  tx ty tz rx ry rz
  position 0 0 0
  orientation 0 0 0
:bonedata
  begin
    id 1
    name RightUpLegDummy
    direction -1 2.30186e-007 8.31532e-007
    length 4.46685
    axis 0 0 0 xyz
  end
  begin
    id 2
    name RightUpLeg
    direction -2.30187e-007 -1 1.24343e-010
    length 16.4045
    axis -3.49089 -0.000906625 0.000286804 xyz
    dof rx ry rz
  end
  begin
    id 3
    name RightLeg
    direction -2.30181e-007 -1 -4.17157e-009
    length 17.5097
    axis 3.68512 0.0193738 -0.131023 xyz
    dof rx ry rz
  end
  begin
    id 4
    name RightFoot
    direction 8.31421e-007 -4.51202e-011 1
    length 6.49508
    axis 4.81691e-005 -0.120479 -0.188788 xyz
    dof rx ry rz
  end
  begin
    id 5
    name RightToes
    direction 0.00124746 -0.014064 0.9999
    length 3.85082
    axis 0.000481921 0.542163 -0.142578 xyz
    dof rx ry rz
  end
  begin
    id 6
    name SpineDummy
    direction 0.0717043 0.9409 -0.331007
    length 10.0032
    axis 0 0 0 xyz
  end
  begin
    id 7
    name Spine
    direction 2.30186e-007 1 4.58806e-011
    length 9.84055
    axis -0.001389 0.000121418 2.40972e-006 xyz
    dof rx ry rz
  end
  begin
    id 8
    name Spine1
    direction 0 0 0
    length 0
    axis -0.001389 0.000121451 1.30017e-006 xyz
    dof rx ry rz
  end
  begin
    id 9
    name HEadDummy
    direction -0.00347485 0.950688 -0.310128
    length 8.00997
    axis -0.001389 0.000121451 1.30017e-006 xyz
  end
  begin
    id 10
    name HEad
    direction -0.0222688 0.980941 0.193023
    length 5.12695
    axis -0.001389 0.000121451 1.30017e-006 xyz
    dof rx ry rz
  end
  begin
    id 11
    name LeftShoulder1Dummy
    direction 0.988871 0.146793 -0.0242004
    length 3.5792
    axis -0.001389 0.000121451 1.30017e-006 xyz
  end
  begin
    id 12
    name LeftShoulder1
    direction 0.993832 0.108932 0.020779
    length 4.16823
    axis -0.001389 0.000121451 1.30017e-006 xyz
    dof rx ry rz
  end
  begin
    id 13
    name LeftArm
    direction 1 3.44807e-006 -8.31404e-007
    length 9.91437
    axis -23.1894 0.134784 0.967509 xyz
    dof rx ry rz
  end
  begin
    id 14
    name LeftForeArm
    direction 1 3.44842e-006 -8.31581e-007
    length 9.08575
    axis -9.91835 -0.06569 -0.177793 xyz
    dof rx ry rz
  end
  begin
    id 15
    name LeftHand
    direction 0.992938 -0.0411636 0.11126
    length 5.32135
    axis -0.00960232 -0.00340091 0.185173 xyz
    dof rx ry rz
  end
  begin
    id 16
    name RightShoulderDummy
    direction -0.988871 0.146793 -0.0241962
    length 3.5792
    axis -0.001389 0.000121451 1.30017e-006 xyz
  end
  begin
    id 17
    name RightShoulder
    direction -0.993832 0.108933 0.0207785
    length 4.16823
    axis 0.215806 0.000203643 -0.0068026 xyz
    dof rx ry rz
  end
  begin
    id 18
    name RightArm
    direction -1 3.90912e-006 8.31284e-007
    length 9.91437
    axis -23.2009 -0.134239 -0.964101 xyz
    dof rx ry rz
  end
  begin
    id 19
    name RightForeArm
    direction -1 3.90882e-006 8.31502e-007
    length 9.08575
    axis -9.92322 0.0658061 0.178867 xyz
    dof rx ry rz
  end
  begin
    id 20
    name RightHand
    direction -0.992843 -0.0414603 0.112003
    length 5.28593
    axis -0.00960638 0.00330671 -0.185228 xyz
    dof rx ry rz
  end
  begin
    id 21
    name LeftUpLegDummy
    direction 1 -2.30186e-007 -8.31532e-007
    length 4.46685
    axis 0 0 0 xyz
  end
  begin
    id 22
    name LeftUpLeg
    direction -2.30187e-007 -1 6.00931e-010
    length 16.4045
    axis -3.48766 0.00143442 -0.000524262 xyz
    dof rx ry rz
  end
  begin
    id 23
    name LeftLeg
    direction -2.30187e-007 -1 1.6669e-009
    length 17.5097
    axis 3.68178 -0.00654042 -0.000285133 xyz
    dof rx ry rz
  end
  begin
    id 24
    name LeftFoot
    direction 8.31532e-007 -4.54478e-011 1
    length 6.49508
    axis 1.87233e-006 4.66016e-005 -8.6538e-006 xyz
    dof rx ry rz
  end
  begin
    id 25
    name LeftToes
    direction 0.00818058 -0.00485161 0.999955
    length 3.85048
    axis 1.06247e-005 4.65869e-005 -8.65513e-006 xyz
    dof rx ry rz
  end
:hierarchy
  begin
    root RightUpLegDummy SpineDummy LeftUpLegDummy
    RightUpLegDummy RightUpLeg
    RightUpLeg RightLeg
    RightLeg RightFoot
    RightFoot RightToes
    SpineDummy Spine
    Spine Spine1
    Spine1 HEadDummy LeftShoulder1Dummy RightShoulderDummy
    HEadDummy HEad
    LeftShoulder1Dummy LeftShoulder1
    LeftShoulder1 LeftArm
    LeftArm LeftForeArm
    LeftForeArm LeftHand
    RightShoulderDummy RightShoulder
    RightShoulder RightArm
    RightArm RightForeArm
    RightForeArm RightHand
    LeftUpLegDummy LeftUpLeg
    LeftUpLeg LeftLeg
    LeftLeg LeftFoot
    LeftFoot LeftToes
  end

:SAMPLES-PER-SECOND 30
:FULLY-SPECIFIED
:DEGREES
32
root  -58.287 33.6953 8.88503 2.07404 48.9702 3.33864
RightUpLeg  8.28456 -19.1951 -6.433
RightLeg  10.4458 -0.191947 -0.0214115
RightFoot  -5.99838 -0.0147544 0.0959543
RightToes  -26.4117 -0.118829 -0.224995
Spine  3.89404 -3.34404 0.514739
Spine1  7.39172 -6.73279 1.09485
HEad  20.3036 44.2894 -5.55919
LeftShoulder1  0 -2.42657e-020 -4.95415e-022
LeftArm  -44.2517 6.80932 -68.576
LeftForeArm  56.7357 -15.0428 -2.67426
LeftHand  0.264696 -10.9263 -3.13902
RightShoulder  0 2.42657e-020 1.07489e-018
RightArm  -75.1143 -24.7966 80.31
RightForeArm  -25.3886 63.8553 20.9415
RightHand  1.99901 11.7031 19.7028
LeftUpLeg  -9.59107 11.8287 2.34162
LeftLeg  6.20145 -14.4683 -0.630603
LeftFoot  14.9309 0.504188 -3.82131
LeftToes  -16.9489 1.71452e-006 7.46813e-008
33
root  -58.2772 33.6941 8.898 2.16979 49.1473 3.40703
RightUpLeg  8.31987 -19.2523 -6.44349
RightLeg  10.4086 -0.325771 -0.037057
RightFoot  -6.01786 -0.0140851 0.10926
RightToes  -26.4196 -0.119002 -0.225197
Spine  3.89334 -3.33019 0.499221
Spine1  7.39626 -6.7057 1.06446
HEad  20.4236 44.3781 -5.63054
LeftShoulder1  0 -2.42657e-020 -4.95415e-022
LeftArm  -43.8695 6.75877 -68.4807
LeftForeArm  56.534 -15.2194 -2.70801
LeftHand  0.267668 -11.0261 -3.16323
RightShoulder  0 2.42657e-020 1.07489e-018
RightArm  -75.2658 -24.6977 80.2331
RightForeArm  -25.485 63.7973 20.8847
RightHand  1.99214 11.6897 19.6594
LeftUpLeg  -9.62109 11.6853 2.2862
LeftLeg  6.1591 -14.4969 -0.621198
LeftFoot  14.9481 0.506067 -3.83408
LeftToes  -16.9649 1.71452e-006 7.46813e-008
34
root  -58.2699 33.6924 8.91195 2.26316 49.3085 3.47396
RightUpLeg  8.33184 -19.1883 -6.41469
RightLeg  10.388 -0.564318 -0.0649664
RightFoot  -6.06182 -0.0138226 0.133557
RightToes  -26.2507 -0.119139 -0.225356
Spine  3.89313 -3.32917 0.480793
Spine1  7.39454 -6.70206 1.02289
HEad  20.4502 44.4623 -5.7677
LeftShoulder1  0 -2.42657e-020 -4.95415e-022
LeftArm  -43.634 6.69863 -68.3754
LeftForeArm  56.3092 -15.3378 -2.73084
LeftHand  0.273459 -11.0754 -3.19191
RightShoulder  0 2.42657e-020 1.07489e-018
RightArm  -75.6066 -24.4672 80.1763
RightForeArm  -25.4274 63.7311 20.8215
RightHand  1.96262 11.6188 19.4936
LeftUpLeg  -9.61792 11.6038 2.23225
LeftLeg  6.05781 -14.565 -0.598523
LeftFoot  14.9918 0.508806 -3.86445
LeftToes  -16.9628 1.71452e-006 7.46813e-008
35
root  -58.2631 33.6907 8.92972 2.33331 49.4955 3.53067
RightUpLeg  8.37525 -19.3494 -6.44789
RightLeg  10.3937 -0.604517 -0.0697508
RightFoot  -6.09869 -0.0122447 0.138597
RightToes  -26.2232 -0.119249 -0.225481
Spine  3.89357 -3.32966 0.453829
Spine1  7.39063 -6.69874 0.977409
HEad  20.6015 44.478 -5.6805
LeftShoulder1  0 -2.42657e-020 -4.95415e-022
LeftArm  -43.4251 6.62981 -68.2841
LeftForeArm  56.2274 -15.4147 -2.74557
LeftHand  0.274885 -11.1038 -3.19517
RightShoulder  0 2.42657e-020 1.07489e-018
RightArm  -75.6208 -24.5513 80.2312
RightForeArm  -25.3398 63.7308 20.8218
RightHand  1.99789 11.6985 19.6996
LeftUpLeg  -9.63878 11.4158 2.19897
LeftLeg  6.03538 -14.5588 -0.592625
LeftFoot  15.005 0.509342 -3.86611
LeftToes  -16.9807 1.71452e-006 7.46813e-008
36
root  -58.2594 33.6887 8.94355 2.40736 49.6548 3.58916
RightUpLeg  8.41769 -19.292 -6.41358
RightLeg  10.3301 -0.838169 -0.0962765
RightFoot  -6.06987 -0.012056 0.162853
RightToes  -26.4069 -0.119337 -0.22558
Spine  3.89478 -3.33096 0.426608
Spine1  7.39023 -6.69258 0.931279
HEad  20.7904 44.3718 -5.62628
LeftShoulder1  0 -2.42657e-020 -4.95415e-022
LeftArm  -43.3592 6.52748 -68.2236
LeftForeArm  56.2083 -15.4316 -2.7488
LeftHand  0.27712 -11.072 -3.23557
RightShoulder  0 2.42657e-020 1.07489e-018
RightArm  -75.5761 -24.6538 80.2187
RightForeArm  -25.2017 63.7565 20.8474
RightHand  2.00572 11.7886 19.6274
LeftUpLeg  -9.68459 11.2333 2.16449
LeftLeg  6.05354 -14.5314 -0.591629
LeftFoot  15.0031 0.508261 -3.85838
LeftToes  -16.9949 1.71452e-006 7.46813e-008
37
root  -58.2577 33.6836 8.9654 2.42591 49.7957 3.60431
RightUpLeg  8.43228 -19.3897 -6.40366
RightLeg  10.4079 -0.890134 -0.10356
RightFoot  -6.16034 -0.0111573 0.170225
RightToes  -26.2694 -0.119411 -0.225662
Spine  3.89869 -3.33239 0.405037
Spine1  7.39872 -6.68804 0.892064
HEad  20.9671 44.4326 -5.37724
LeftShoulder1  0 -2.42657e-020 -4.95415e-022
LeftArm  -43.3255 6.44419 -68.1489
LeftForeArm  56.1196 -15.4207 -2.74693
LeftHand  0.2774 -11.0882 -3.22921
RightShoulder  0 2.42657e-020 1.07489e-018
RightArm  -75.5304 -24.7246 80.2573
RightForeArm  -25.2334 63.8363 20.9242
RightHand  1.97848 11.7049 19.505
LeftUpLeg  -9.69623 11.2791 2.17824
LeftLeg  5.99154 -14.5967 -0.583061
LeftFoot  15.475 0.543065 -3.99532
LeftToes  -19.0252 1.71452e-006 7.46813e-008
38
root  -58.2622 33.6805 8.9852 2.43821 49.8913 3.62014
RightUpLeg  8.44847 -19.3306 -6.34767
RightLeg  10.433 -1.04721 -0.122532
RightFoot  -6.20201 -0.0112767 0.187255
RightToes  -26.24 -0.119477 -0.225733
Spine  3.91335 -3.33324 0.38446
Spine1  7.43159 -6.69761 0.845586
HEad  21.0663 44.4682 -5.37432
LeftShoulder1  0 -2.42657e-020 -4.95415e-022
LeftArm  -43.2589 6.42355 -68.0719
LeftForeArm  56.072 -15.4735 -2.75702
LeftHand  0.279147 -11.1082 -3.31025
RightShoulder  0 2.42657e-020 1.07489e-018
RightArm  -75.4321 -24.698 80.3121
RightForeArm  -25.1478 63.8586 20.9464
RightHand  1.96343 11.7112 19.352
LeftUpLeg  -9.70925 11.2224 2.19426
LeftLeg  6.01278 -14.6396 -0.590111
LeftFoot  15.4789 0.545032 -4.00874
LeftToes  -19.2194 1.71452e-006 7.46813e-008
39
root  -58.2661 33.6776 8.99975 2.44557 49.9806 3.63927
RightUpLeg  8.46203 -19.3369 -6.32468
RightLeg  10.4691 -1.13933 -0.134157
RightFoot  -6.24715 -0.0112515 0.198406
RightToes  -26.1432 -0.119543 -0.225803
Spine  3.92676 -3.33283 0.367961
Spine1  7.4579 -6.7098 0.813501
HEad  21.2075 44.3886 -5.43639
LeftShoulder1  0 -2.42657e-020 -4.95415e-022
LeftArm  -43.1242 6.41388 -68.0334
LeftForeArm  55.9974 -15.5132 -2.76468
LeftHand  0.281763 -11.1075 -3.2691
RightShoulder  0 2.42657e-020 1.07489e-018
RightArm  -75.4318 -24.6604 80.3432
RightForeArm  -25.2249 63.8646 20.9517
RightHand  1.9438 11.6348 19.2877
LeftUpLeg  -9.74837 11.1343 2.20173
LeftLeg  6.09159 -14.6322 -0.60977
LeftFoot  15.46 0.544777 -4.00201
LeftToes  -19.268 1.71452e-006 7.46813e-008
40
root  -58.271 33.6779 9.0258 2.44004 50.0078 3.64118
RightUpLeg  8.47762 -19.3562 -6.29991
RightLeg  10.5098 -1.14809 -0.13603
RightFoot  -6.25709 -0.0107439 0.199118
RightToes  -26.1447 -0.119615 -0.225879
Spine  3.92833 -3.32953 0.35302
Spine1  7.46457 -6.69913 0.776389
HEad  21.54 44.4089 -5.15247
LeftShoulder1  0 -2.42657e-020 -4.95415e-022
LeftArm  -42.9722 6.50131 -67.9961
LeftForeArm  55.8922 -15.5951 -2.78043
LeftHand  0.289773 -11.1915 -3.32895
RightShoulder  0 2.42657e-020 1.07489e-018
RightArm  -75.3357 -24.6022 80.3829
RightForeArm  -25.1747 63.8318 20.9203
RightHand  1.94658 11.6658 19.2645
LeftUpLeg  -9.71743 10.8992 2.25179
LeftLeg  6.0851 -14.4354 -0.600131
LeftFoot  15.467 0.541328 -3.94732
LeftToes  -19.4385 1.71452e-006 7.46813e-008
